<?xml version="1.0" encoding="utf-8"?>
<!-- Generator: Adobe Illustrator 22.1.0, SVG Export Plug-In . SVG Version: 6.00 Build 0)  -->
<svg version="1.1" id="Layer_1" xmlns="http://www.w3.org/2000/svg" xmlns:xlink="http://www.w3.org/1999/xlink" x="0px" y="0px"
	 viewBox="0 0 75 75" style="enable-background:new 0 0 75 75;" xml:space="preserve">
<style type="text/css">
	.st0{fill:#003087;}
</style>
<title>Icons/Home/*Home</title>
<desc>Created with Sketch.</desc>
<g id="Icons_x2F_Home_x2F__x2A_Home">
	<g id="Color" transform="translate(8.000000, 15.000000)">
		<g id="Mask">
			<path id="path-1_1_" class="st0" d="M17,0L0,12.8v1.5L17,1.5l3.4,2.5h0l13.7,10.2v2.4L17,4L2.4,15v1.4v1.2v23.4H1.2v3.6h26.3v0
				H58v-3.6h-1.2V21.9H30V20h30v0L55.2,4.1H43.8V3.5V1.7h0.6V0.8V0.3h-6.7v1.4h0.6v2.4H22.5L17,0z M17.6,18.8v-5.1h4.8h0v7.4h0h-4.8
				V18.8z M11.5,18.8v-5.1h4.9v7.4h-4.9V18.8z M47.9,31.8v-3.9h4.8v7h0h-4.8V31.8z M42,32.3v-4.3h4.7v7H42V32.3z M36,31.4v-3.5h4.8
				v7H36V31.4z M17.6,32.5v-4.6h7.9v13h-7.9V32.5z M8.2,31v-3h5.1v7h0H8.2V31z"/>
		</g>
	</g>
</g>
</svg>
